<svg width="217" height="56" viewBox="0 0 217 56" fill="none" xmlns="http://www.w3.org/2000/svg">
<rect x="0.714355" width="215.571" height="56" rx="28" fill="url(#paint0_linear_230_13917)"/>
<g clip-path="url(#clip0_230_13917)">
<path d="M35.8752 28.016C35.8917 29.4422 35.4126 30.8266 34.5261 31.9145C33.6395 33.0023 32.4052 33.7204 31.0503 33.9366C28.7349 34.3204 26.3807 32.9729 25.2909 30.6358C24.9503 29.8961 24.7572 29.0922 24.7232 28.2728C24.6892 27.4533 24.815 26.6351 25.093 25.8676C25.371 25.1 25.7955 24.399 26.3409 23.8067C26.8862 23.2144 27.5412 22.7432 28.2663 22.4213C30.9643 21.2672 34.131 22.6118 35.3511 25.4567C35.7008 26.2606 35.8796 27.1336 35.8752 28.016ZM32.739 28.0477C32.7695 27.1482 32.4622 26.2716 31.8822 25.6038C31.6865 25.3622 31.442 25.1683 31.1661 25.0362C30.8902 24.904 30.5897 24.8368 30.286 24.8393C29.9823 24.8417 29.6829 24.9139 29.409 25.0505C29.1352 25.1872 28.8936 25.385 28.7016 25.6298C28.1686 26.2994 27.8784 27.1424 27.8814 28.0119C27.8845 28.8813 28.1806 29.7221 28.7183 30.3877C28.9096 30.6253 29.148 30.8171 29.4173 30.9498C29.6865 31.0825 29.9802 31.1531 30.2781 31.1567C30.576 31.1602 30.8711 31.0967 31.1432 30.9704C31.4153 30.8442 31.6579 30.6582 31.8544 30.4252C32.4358 29.783 32.7532 28.9299 32.739 28.0477Z" fill="white"/>
<path d="M90.4604 28.8095C90.8015 29.5943 91.1342 30.3762 91.4836 31.1523C91.6316 31.4304 91.7032 31.7455 91.6904 32.0631C91.6777 32.3807 91.5812 32.6885 91.4115 32.9528C91.2601 33.1895 91.0515 33.3807 90.8066 33.507C90.5617 33.6334 90.2893 33.6905 90.0165 33.6727C89.7437 33.6549 89.4802 33.5627 89.2525 33.4055C89.0248 33.2482 88.8408 33.0314 88.719 32.7768C88.2642 31.8419 87.8483 30.8811 87.4767 29.8915C87.302 29.4385 87.0774 29.248 86.6171 29.3144C86.4206 29.3305 86.2231 29.3305 86.0265 29.3144C86.0265 29.4558 86.0099 29.577 86.0099 29.6953C86.0099 30.4397 86.0099 31.1841 86.0099 31.9285C86.0173 32.1468 85.9829 32.3644 85.9087 32.5687C85.8345 32.773 85.722 32.96 85.5778 33.1186C85.4336 33.2773 85.2604 33.4046 85.0685 33.493C84.8766 33.5814 84.6697 33.6293 84.4598 33.6337C84.2498 33.6424 84.0403 33.6063 83.8441 33.5278C83.6479 33.4493 83.4692 33.33 83.3189 33.1771C83.1686 33.0242 83.0499 32.841 82.97 32.6387C82.8901 32.4364 82.8507 32.2193 82.8543 32.0006C82.8376 29.3077 82.8376 26.6224 82.8543 23.9448C82.8543 22.9494 83.5447 22.2944 84.518 22.2916C85.8564 22.2916 87.1948 22.2916 88.5332 22.2916C89.2685 22.2691 89.9909 22.4963 90.5912 22.9387C91.1915 23.3812 91.6371 24.0148 91.8607 24.7441C92.0757 25.4437 92.0729 26.196 91.8528 26.8939C91.6327 27.5917 91.2066 28.1995 90.6351 28.6306C90.5852 28.7027 90.5269 28.7489 90.4604 28.8095ZM86.0237 26.6426C86.6892 26.6426 87.3187 26.6657 87.9426 26.6426C88.038 26.6371 88.1315 26.612 88.2177 26.5688C88.3038 26.5256 88.3809 26.4652 88.4445 26.3909C88.5081 26.3167 88.557 26.2301 88.5884 26.1361C88.6198 26.0422 88.6331 25.9427 88.6275 25.8434C88.632 25.6374 88.5582 25.438 88.4222 25.2883C88.2861 25.1387 88.0988 25.0509 87.901 25.0441C87.5128 25.0239 87.1218 25.0441 86.7308 25.0441H86.0237V26.6426Z" fill="white"/>
<path d="M54.2596 29.3231C54.2596 28.4575 54.2347 27.5602 54.2596 26.683C54.3316 25.4376 54.867 24.2704 55.7522 23.4288C56.6374 22.5872 57.8029 22.1375 59.0014 22.175C60.1999 22.2126 61.3373 22.7344 62.1722 23.6298C63.0072 24.5253 63.4742 25.7239 63.4741 26.9716C63.4741 28.6508 63.4741 30.333 63.4741 32.0151C63.4842 32.2362 63.4512 32.4571 63.3772 32.6646C63.3032 32.8721 63.1896 33.0619 63.0433 33.2225C62.897 33.3832 62.721 33.5114 62.5259 33.5994C62.3307 33.6875 62.1205 33.7336 61.9078 33.735C61.6951 33.7363 61.4843 33.6929 61.2881 33.6074C61.092 33.5218 60.9144 33.3959 60.7662 33.2371C60.618 33.0783 60.5022 32.89 60.4258 32.6835C60.3493 32.477 60.3137 32.2565 60.3212 32.0353C60.3074 30.3041 60.3212 28.5729 60.3212 26.8417C60.3422 26.5588 60.2891 26.2752 60.1675 26.0212C60.046 25.7671 59.8605 25.5521 59.6308 25.3991C59.4172 25.2485 59.1668 25.1645 58.9089 25.1568C58.6511 25.1491 58.3965 25.2182 58.175 25.3558C57.9359 25.4832 57.7368 25.6792 57.6012 25.9205C57.4656 26.1617 57.3992 26.4384 57.4097 26.7177C57.4097 28.4777 57.4097 30.2377 57.4097 31.9978C57.415 32.219 57.377 32.4391 57.2978 32.6446C57.2187 32.85 57.1 33.0365 56.9492 33.1926C56.7984 33.3487 56.6186 33.4711 56.4208 33.5525C56.2229 33.6338 56.0112 33.6722 55.7986 33.6655C55.3871 33.6542 54.9961 33.4764 54.7087 33.1698C54.4213 32.8632 54.2602 32.452 54.2596 32.0237V31.9574C54.2596 31.0764 54.2596 30.1964 54.2596 29.3173V29.3231Z" fill="white"/>
<path d="M96.2751 22.1558C97.717 22.2077 98.7708 22.5222 99.683 23.2897C100.091 23.6175 100.376 24.0826 100.49 24.6054C100.576 24.9134 100.562 25.2427 100.448 25.541C100.335 25.8394 100.129 26.0899 99.8633 26.2529C99.5686 26.4044 99.2364 26.4579 98.9115 26.4063C98.5866 26.3547 98.2848 26.2004 98.047 25.9644C97.9 25.8172 97.7697 25.647 97.62 25.4998C97.4337 25.3164 97.211 25.1777 96.9676 25.0934C96.7243 25.0092 96.4661 24.9815 96.2113 25.0122C96.0791 25.0067 95.9488 25.0463 95.8402 25.1249C95.7316 25.2036 95.6506 25.317 95.6096 25.4479C95.5611 25.5898 95.5661 25.7456 95.6238 25.8838C95.6815 26.022 95.7874 26.1323 95.9202 26.1923C96.3999 26.426 96.9046 26.6049 97.3982 26.8069C97.9527 27.029 98.5073 27.2079 99.0314 27.4792C99.5311 27.7366 99.9542 28.1304 100.256 28.6184C100.557 29.1064 100.726 29.6704 100.743 30.2503C100.761 30.8302 100.627 31.4041 100.356 31.911C100.085 32.4179 99.6863 32.8387 99.2033 33.1286C97.5784 34.1673 94.9857 34.0432 93.4856 32.8574C93.2228 32.6748 93.0005 32.436 92.8336 32.1569C92.6667 31.8777 92.559 31.5647 92.5178 31.2387C92.4673 30.924 92.5168 30.6007 92.659 30.3179C92.8011 30.0351 93.028 29.8083 93.3053 29.672C93.594 29.5354 93.9156 29.4924 94.2281 29.5485C94.5406 29.6045 94.8297 29.7572 95.0578 29.9865C95.1965 30.1308 95.3185 30.275 95.4571 30.4308C95.6538 30.6366 95.8926 30.7933 96.1558 30.8892C96.419 30.9851 96.6996 31.0178 96.9767 30.9848C97.1173 30.97 97.2539 30.9268 97.3787 30.8579C97.828 30.6155 97.8945 30.1683 97.4786 29.8653C97.1476 29.6526 96.7952 29.4784 96.4276 29.346C95.7732 29.0574 95.0883 28.8641 94.4588 28.5409C93.2249 27.9091 92.6897 26.8098 92.7701 25.4104C92.8506 24.011 93.602 23.0387 94.8526 22.5251C95.3162 22.3614 95.792 22.2378 96.2751 22.1558Z" fill="white"/>
<path d="M50.5136 33.6598C50.0117 33.6598 49.5126 33.6829 49.0135 33.6598C48.4216 33.6353 47.8464 33.4485 47.3463 33.1182C46.8461 32.7879 46.4387 32.326 46.1654 31.7791C45.892 31.2323 45.7625 30.62 45.7898 30.0042C45.8171 29.3885 46.0004 28.7912 46.321 28.2729C46.3776 28.202 46.4086 28.1127 46.4086 28.0205C46.4086 27.9283 46.3776 27.839 46.321 27.768C45.9907 27.2372 45.804 26.6236 45.7804 25.9917C45.7568 25.3599 45.8972 24.733 46.1869 24.1772C46.4766 23.6213 46.9048 23.1568 47.4266 22.8327C47.9484 22.5085 48.5444 22.3366 49.1521 22.335C50.1421 22.3119 51.132 22.335 52.1219 22.335C52.2927 22.335 52.4618 22.37 52.6196 22.438C52.7774 22.506 52.9208 22.6057 53.0415 22.7313C53.1623 22.857 53.2581 23.0061 53.3234 23.1703C53.3888 23.3345 53.4225 23.5105 53.4225 23.6882C53.4225 23.8659 53.3888 24.0418 53.3234 24.206C53.2581 24.3702 53.1623 24.5194 53.0415 24.645C52.9208 24.7707 52.7774 24.8704 52.6196 24.9384C52.4618 25.0064 52.2927 25.0414 52.1219 25.0414C51.3705 25.0414 50.619 25.0414 49.8676 25.0414C49.313 25.0414 48.9858 25.3645 48.9885 25.8608C48.9913 26.3571 49.3213 26.6543 49.8509 26.66C50.5913 26.66 51.3317 26.66 52.0693 26.66C52.8873 26.66 53.4751 27.2371 53.4696 28.0248C53.464 28.8125 52.8762 29.3463 52.0665 29.3492C51.3372 29.3492 50.6079 29.3492 49.8787 29.3492C49.3241 29.3492 48.9885 29.6636 48.9858 30.1542C48.983 30.6447 49.3213 30.9678 49.8703 30.9736C50.6107 30.9736 51.3511 30.9736 52.0887 30.9736C52.2661 30.9622 52.4439 30.9886 52.6112 31.0512C52.7785 31.1139 52.9318 31.2114 53.0616 31.3378C53.1914 31.4642 53.295 31.6169 53.3661 31.7865C53.4373 31.956 53.4743 32.1389 53.4751 32.3239C53.4751 33.0914 52.8984 33.6598 52.0887 33.6656C51.5674 33.6656 51.0433 33.6656 50.522 33.6656L50.5136 33.6598Z" fill="white"/>
<path d="M79.0994 33.6597C78.5892 33.6597 78.0762 33.6799 77.566 33.6597C76.9813 33.6292 76.4145 33.4403 75.9216 33.1116C75.4288 32.7829 75.0271 32.3259 74.7564 31.7858C74.4857 31.2458 74.3553 30.6415 74.3783 30.0328C74.4013 29.4242 74.5767 28.8324 74.8873 28.3161C74.9499 28.234 74.9839 28.1323 74.9839 28.0275C74.9839 27.9228 74.9499 27.8211 74.8873 27.739C74.563 27.2106 74.3803 26.6016 74.3582 25.975C74.3361 25.3485 74.4754 24.7271 74.7616 24.1754C75.0478 23.6237 75.4705 23.1616 75.986 22.8369C76.5015 22.5123 77.091 22.337 77.6935 22.329C78.7029 22.2973 79.7178 22.329 80.7271 22.329C80.8979 22.329 81.067 22.364 81.2248 22.4321C81.3826 22.5001 81.5259 22.5997 81.6467 22.7254C81.7675 22.851 81.8633 23.0002 81.9286 23.1644C81.994 23.3286 82.0276 23.5045 82.0276 23.6823C82.0276 23.86 81.994 24.0359 81.9286 24.2001C81.8633 24.3643 81.7675 24.5135 81.6467 24.6391C81.5259 24.7648 81.3826 24.8645 81.2248 24.9325C81.067 25.0005 80.8979 25.0355 80.7271 25.0355C79.9451 25.0355 79.1604 25.0355 78.3784 25.0355C78.2725 25.0317 78.167 25.0504 78.0683 25.0905C77.9695 25.1306 77.8797 25.1913 77.8043 25.2688C77.7289 25.3462 77.6694 25.4389 77.6296 25.5411C77.5898 25.6433 77.5704 25.7529 77.5727 25.8631C77.575 25.9733 77.5988 26.082 77.6428 26.1823C77.6868 26.2826 77.75 26.3725 77.8285 26.4466C77.9071 26.5206 77.9993 26.5772 78.0995 26.6129C78.1998 26.6486 78.306 26.6626 78.4117 26.6541C79.1632 26.6541 79.9119 26.6541 80.6633 26.6541C80.8401 26.6421 81.0174 26.6679 81.1843 26.73C81.3511 26.7921 81.5039 26.8892 81.6333 27.0152C81.7626 27.1413 81.8657 27.2936 81.9361 27.4627C82.0066 27.6319 82.043 27.8143 82.043 27.9987C82.043 28.1831 82.0066 28.3655 81.9361 28.5346C81.8657 28.7038 81.7626 28.8561 81.6333 28.9821C81.5039 29.1082 81.3511 29.2052 81.1843 29.2674C81.0174 29.3295 80.8401 29.3553 80.6633 29.3432C79.9229 29.3432 79.1826 29.3432 78.445 29.3432C77.8904 29.3432 77.5604 29.6606 77.5632 30.1598C77.566 30.6589 77.9015 30.9619 78.4561 30.9677C79.1965 30.9677 79.9368 30.9677 80.6744 30.9677C80.8516 30.9556 81.0293 30.9815 81.1965 31.0437C81.3636 31.106 81.5168 31.2033 81.6464 31.3296C81.7759 31.4559 81.8793 31.6085 81.9499 31.778C82.0205 31.9475 82.0569 32.1303 82.0569 32.3151C82.0569 32.4999 82.0205 32.6827 81.9499 32.8522C81.8793 33.0217 81.7759 33.1743 81.6464 33.3006C81.5168 33.4269 81.3636 33.5242 81.1965 33.5865C81.0293 33.6487 80.8516 33.6746 80.6744 33.6625H79.0744L79.0994 33.6597Z" fill="white"/>
<path d="M106.341 33.6597C105.828 33.6597 105.315 33.6799 104.804 33.6597C104.217 33.6317 103.646 33.4435 103.15 33.1139C102.654 32.7843 102.25 32.3249 101.979 31.7816C101.707 31.2384 101.577 30.6304 101.603 30.0186C101.628 29.4069 101.807 28.8128 102.123 28.2959C102.186 28.2174 102.221 28.1183 102.221 28.016C102.221 27.9136 102.186 27.8146 102.123 27.7361C101.8 27.2067 101.619 26.5971 101.598 25.9704C101.577 25.3436 101.717 24.7225 102.005 24.1712C102.292 23.6199 102.716 23.1584 103.232 22.8345C103.748 22.5107 104.338 22.3362 104.94 22.329C105.941 22.2973 106.942 22.329 107.943 22.329C108.114 22.329 108.283 22.364 108.441 22.4321C108.599 22.5001 108.742 22.5997 108.863 22.7254C108.984 22.851 109.08 23.0002 109.145 23.1644C109.21 23.3286 109.244 23.5045 109.244 23.6823C109.244 23.86 109.21 24.0359 109.145 24.2001C109.08 24.3643 108.984 24.5135 108.863 24.6391C108.742 24.7648 108.599 24.8645 108.441 24.9325C108.283 25.0005 108.114 25.0355 107.943 25.0355C107.203 25.0355 106.465 25.0355 105.725 25.0355C105.143 25.0355 104.81 25.324 104.813 25.852C104.816 26.38 105.148 26.6541 105.736 26.6541C106.465 26.6541 107.192 26.6541 107.921 26.6541C108.098 26.6421 108.275 26.6679 108.442 26.73C108.609 26.7921 108.762 26.8892 108.891 27.0152C109.02 27.1413 109.124 27.2936 109.194 27.4627C109.264 27.6319 109.301 27.8143 109.301 27.9987C109.301 28.1831 109.264 28.3655 109.194 28.5346C109.124 28.7038 109.02 28.8561 108.891 28.9821C108.762 29.1082 108.609 29.2052 108.442 29.2674C108.275 29.3295 108.098 29.3553 107.921 29.3432C107.181 29.3432 106.44 29.3432 105.703 29.3432C105.148 29.3432 104.813 29.652 104.81 30.1453C104.807 30.6387 105.14 30.9619 105.689 30.9677C106.429 30.9677 107.17 30.9677 107.907 30.9677C108.085 30.9559 108.262 30.9819 108.43 31.0442C108.597 31.1065 108.75 31.2037 108.88 31.3299C109.01 31.4561 109.114 31.6086 109.185 31.778C109.256 31.9475 109.293 32.1302 109.294 32.3151C109.294 33.0855 108.72 33.651 107.907 33.6625H106.341V33.6597Z" fill="white"/>
<path d="M39.7795 29.3461C39.7795 30.2117 39.7795 31.034 39.7795 31.8564C39.7821 32.0923 39.7522 32.3275 39.6907 32.5546C39.5767 32.9181 39.3425 33.2278 39.0298 33.4285C38.717 33.6293 38.346 33.7081 37.9826 33.651C37.6362 33.5997 37.3159 33.4302 37.072 33.1691C36.8282 32.908 36.6744 32.5701 36.635 32.2084C36.6211 32.0612 36.6211 31.9198 36.6211 31.7669V24.2334C36.6211 22.9783 37.2395 22.3348 38.4457 22.3348C39.5327 22.3348 40.6224 22.3175 41.7094 22.3348C42.4364 22.3533 43.1383 22.6156 43.7104 23.0827C44.2826 23.5498 44.6944 24.1968 44.8845 24.9272C45.0747 25.6576 45.033 26.4323 44.7656 27.1361C44.4983 27.8398 44.0196 28.4348 43.4009 28.8326C42.8297 29.1916 42.1713 29.3719 41.5042 29.3519C40.9496 29.3404 40.3784 29.3461 39.7795 29.3461ZM39.8016 26.634C40.273 26.634 40.725 26.6628 41.1742 26.634C41.3514 26.6022 41.5121 26.5063 41.6279 26.3632C41.7437 26.2201 41.8072 26.0391 41.8072 25.852C41.8072 25.665 41.7437 25.4839 41.6279 25.3409C41.5121 25.1978 41.3514 25.1019 41.1742 25.0701C40.725 25.0268 40.273 25.0701 39.81 25.0701L39.8016 26.634Z" fill="white"/>
<path d="M69.0781 27.9841L70.2067 25.3008C70.484 24.6487 70.7419 23.9937 71.0386 23.3474C71.1889 22.9817 71.4615 22.6851 71.8059 22.5125C72.1502 22.3399 72.543 22.303 72.9115 22.4087C73.28 22.5143 73.5993 22.7553 73.8101 23.0871C74.021 23.4188 74.1091 23.8188 74.0583 24.213C73.9673 24.607 73.8324 24.9885 73.6562 25.3498C72.6441 27.7446 71.6209 30.1365 70.606 32.5314C70.3287 33.2181 69.8573 33.6855 69.1031 33.6855C68.7682 33.6962 68.4388 33.5949 68.1634 33.3966C67.8879 33.1982 67.6808 32.9132 67.5724 32.5833C67.3644 32.0755 67.1398 31.5734 66.9263 31.0685C66.0242 28.9603 65.1295 26.8531 64.2421 24.7468C64.1495 24.5502 64.0953 24.3364 64.0829 24.1178C64.0704 23.8992 64.0999 23.6802 64.1696 23.4736C64.2393 23.2669 64.3478 23.0768 64.4888 22.9143C64.6298 22.7517 64.8005 22.62 64.9909 22.5267C65.1813 22.4335 65.3877 22.3806 65.5979 22.3712C65.8082 22.3618 66.0181 22.396 66.2156 22.4718C66.413 22.5477 66.5939 22.6636 66.7478 22.813C66.9018 22.9623 67.0256 23.142 67.1121 23.3416C67.7 24.7006 68.2712 26.0654 68.8479 27.4272C68.9034 27.5802 68.9727 27.7302 69.0781 27.9841Z" fill="white"/>
</g>
<path d="M121.366 22.408C119.382 22.408 117.974 23.816 117.974 25.848C117.974 27.88 119.382 29.288 121.366 29.288C123.334 29.288 124.758 27.88 124.758 25.848C124.758 23.816 123.334 22.408 121.366 22.408ZM121.366 24.12C122.214 24.12 122.838 24.744 122.838 25.848C122.838 26.936 122.214 27.56 121.366 27.56C120.502 27.56 119.894 26.936 119.894 25.848C119.894 24.744 120.502 24.12 121.366 24.12ZM128.534 21.624V29.656H130.55V21.624H128.534ZM126.806 24.696V26.408H129.158V24.696H126.806ZM125.398 21.896V29.56H127.382V21.896H125.398ZM120.502 30.28V36.264H130.55V30.28H128.47V31.608H122.598V30.28H120.502ZM122.598 33.256H128.47V34.568H122.598V33.256ZM144.461 21.592V36.456H146.605V21.592H144.461ZM146.125 27.08V28.824H148.749V27.08H146.125ZM135.565 31.128V32.888H136.813C139.389 32.888 141.421 32.824 143.661 32.424L143.453 30.664C141.277 31.048 139.309 31.128 136.813 31.128H135.565ZM135.565 22.968V31.976H137.677V24.68H142.477V22.968H135.565ZM149.068 28.808V30.488H162.492V28.808H149.068ZM154.812 29.912V33.032H156.972V29.912H154.812ZM150.636 34.456V36.168H161.02V34.456H150.636ZM150.636 31.736V34.888H152.78V31.736H150.636ZM155.772 21.88C152.572 21.88 150.444 23.08 150.444 24.952C150.444 26.84 152.572 28.024 155.772 28.024C158.956 28.024 161.1 26.84 161.1 24.952C161.1 23.08 158.956 21.88 155.772 21.88ZM155.772 23.56C157.644 23.56 158.812 24.04 158.812 24.952C158.812 25.864 157.644 26.328 155.772 26.328C153.9 26.328 152.732 25.864 152.732 24.952C152.732 24.04 153.9 23.56 155.772 23.56ZM163.163 33.064V34.792H176.571V33.064H163.163ZM168.779 30.264V33.768H170.907V30.264H168.779ZM164.667 22.568V24.248H172.955V25.832H164.699V29.992H166.811V27.496H175.067V22.568H164.667ZM164.699 29.144V30.856H175.403V29.144H164.699ZM178.794 28.44V30.136H189.21V28.44H178.794ZM177.242 32.904V34.648H190.65V32.904H177.242ZM178.794 22.824V29.144H180.906V24.552H189.098V22.824H178.794Z" fill="white"/>
<defs>
<linearGradient id="paint0_linear_230_13917" x1="13.7006" y1="4.80001" x2="222.32" y2="38.9853" gradientUnits="userSpaceOnUse">
<stop offset="0.128571" stop-color="#FF4486"/>
<stop offset="1" stop-color="#3135EC"/>
</linearGradient>
<clipPath id="clip0_230_13917">
<rect width="84.5714" height="12" fill="white" transform="translate(24.7144 22)"/>
</clipPath>
</defs>
</svg>
