<svg width="400" height="280" viewBox="0 0 400 280" fill="none" xmlns="http://www.w3.org/2000/svg">
<path d="M385.411 280C391.901 280 396.736 278.334 398.864 274.287C405.932 260.838 378.658 230.458 354.537 207.339L353.25 209.035C386.042 240.634 402.044 263.843 397.077 273.127C392.111 282.41 366.44 277.56 326.422 259.826C285.379 241.646 233.669 211.98 180.828 176.304C73.965 104.119 -7.56851 26.5481 2.78412 6.88017C7.67139 -2.40334 33.4216 2.41692 73.4395 20.1508L74.1752 18.068C44.7201 5.00564 8.17065 -7.69975 1.07623 5.71969C-10.196 27.1432 68.2895 102.929 179.751 178.298C232.67 214.004 284.486 243.759 325.66 262.028C346.339 271.044 370.381 280 385.411 280Z" fill="url(#paint0_linear_230_11094)"/>
<defs>
<linearGradient id="paint0_linear_230_11094" x1="125.44" y1="52.5907" x2="74.2222" y2="127.793" gradientUnits="userSpaceOnUse">
<stop stop-color="#DD9D18" stop-opacity="0"/>
<stop offset="0.543549" stop-color="#DD9D18"/>
<stop offset="1" stop-color="white" stop-opacity="0.5"/>
</linearGradient>
</defs>
</svg>
