<svg width="32" height="32" viewBox="0 0 32 32" fill="none" xmlns="http://www.w3.org/2000/svg">
<path fill-rule="evenodd" clip-rule="evenodd" d="M23.6698 9.9205C24.1091 9.48116 24.1091 8.76884 23.6698 8.3295C23.2304 7.89017 22.5181 7.89017 22.0788 8.3295L15.9996 14.4087L9.9205 8.3295C9.48116 7.89017 8.76884 7.89017 8.3295 8.3295C7.89017 8.76884 7.89017 9.48116 8.3295 9.9205L14.4087 15.9996L8.3295 22.0788C7.89017 22.5181 7.89017 23.2304 8.3295 23.6698C8.76884 24.1091 9.48116 24.1091 9.9205 23.6698L15.9996 17.5906L22.0788 23.6698C22.5181 24.1091 23.2304 24.1091 23.6698 23.6698C24.1091 23.2304 24.1091 22.5181 23.6698 22.0788L17.5906 15.9996L23.6698 9.9205Z" fill="white"/>
</svg>
