<svg width="24" height="24" viewBox="0 0 24 24" fill="none" xmlns="http://www.w3.org/2000/svg">
<path fill-rule="evenodd" clip-rule="evenodd" d="M10.1938 18C9.08951 18 8.03992 17.5794 7.2384 16.8158C5.64601 15.2981 5.58066 12.8918 7.09236 11.4512L12.0176 6.75853C12.5303 6.26968 13.2225 6 13.966 6C14.7615 6 15.5177 6.30253 16.0945 6.852C17.2421 7.94526 17.2862 9.68274 16.1919 10.7248L11.2607 15.4168C10.9413 15.7219 10.5112 15.8893 10.0497 15.8893C9.56229 15.8893 9.10018 15.7048 8.74943 15.3707C8.04726 14.7006 8.02525 13.6326 8.70075 12.9884L13.2519 8.65895C13.5119 8.41137 13.9333 8.4101 14.1947 8.65642C14.4555 8.90274 14.4568 9.30253 14.1967 9.54947L9.64631 13.8796C9.48627 14.0324 9.50828 14.3021 9.69566 14.4802C9.79302 14.5731 9.92238 14.6261 10.0497 14.6261C10.1231 14.6261 10.2285 14.6091 10.3151 14.5263L15.2463 9.83432C15.8245 9.28295 15.7811 8.34505 15.149 7.74253C14.5442 7.16653 13.5179 7.12105 12.9631 7.64905L8.03792 12.3417C7.04168 13.2909 7.10703 14.8989 8.18463 15.9253C8.73343 16.4488 9.44693 16.7368 10.1938 16.7368C10.8613 16.7368 11.4801 16.4981 11.9349 16.0648L16.8607 11.3722C17.1201 11.1253 17.5422 11.1234 17.8036 11.3697C18.0643 11.616 18.0657 12.0152 17.8063 12.2627L12.8804 16.9554C12.1736 17.6286 11.2194 18 10.1938 18Z" fill="#4C79FF"/>
</svg>
