<svg width="64" height="64" viewBox="0 0 64 64" fill="none" xmlns="http://www.w3.org/2000/svg">
<path d="M27.8431 10.4C29.6906 7.2 34.3094 7.2 36.1569 10.4L52.7846 39.2C54.6321 42.4 52.3227 46.4 48.6277 46.4H15.3723C11.6773 46.4 9.36787 42.4 11.2154 39.2L27.8431 10.4Z" stroke="url(#paint0_linear_230_14667)" stroke-width="3.2"/>
<path d="M29.3488 21.786C29.3115 20.2935 30.5112 19.0635 32.0042 19.0635C33.4971 19.0635 34.6968 20.2935 34.6595 21.786L34.4467 30.2983C34.4136 31.6235 33.3298 32.6805 32.0042 32.6805C30.6786 32.6805 29.5948 31.6235 29.5616 30.2983L29.3488 21.786Z" fill="#FF4486"/>
<circle cx="32.0051" cy="37.7863" r="2.38298" fill="#FF4486"/>
<defs>
<linearGradient id="paint0_linear_230_14667" x1="41.0213" y1="48.3404" x2="29.9574" y2="3.23404" gradientUnits="userSpaceOnUse">
<stop offset="0.635982" stop-color="#FF4486"/>
<stop offset="1" stop-color="#5C47DC"/>
</linearGradient>
</defs>
</svg>
