<svg width="24" height="24" viewBox="0 0 24 24" fill="none" xmlns="http://www.w3.org/2000/svg">
<path fill-rule="evenodd" clip-rule="evenodd" d="M17.7084 7.70711C18.0989 7.31658 18.0989 6.68342 17.7084 6.29289C17.3179 5.90237 16.6847 5.90237 16.2942 6.29289L12.0006 10.5864L7.70711 6.29289C7.31658 5.90237 6.68342 5.90237 6.29289 6.29289C5.90237 6.68342 5.90237 7.31658 6.29289 7.70711L10.5864 12.0006L6.29289 16.2942C5.90237 16.6847 5.90237 17.3179 6.29289 17.7084C6.68342 18.0989 7.31658 18.0989 7.70711 17.7084L12.0006 13.4149L16.2942 17.7084C16.6847 18.0989 17.3179 18.0989 17.7084 17.7084C18.0989 17.3179 18.0989 16.6847 17.7084 16.2942L13.4149 12.0006L17.7084 7.70711Z" fill="#EE2B4B"/>
</svg>
