<svg width="24" height="24" viewBox="0 0 24 24" fill="none" xmlns="http://www.w3.org/2000/svg">
<path fill-rule="evenodd" clip-rule="evenodd" d="M12.9533 7C12.9533 6.44772 12.5055 6 11.9533 6C11.401 6 10.9533 6.44772 10.9533 7V11.0011H6.95215C6.39986 11.0011 5.95215 11.4488 5.95215 12.0011C5.95215 12.5534 6.39986 13.0011 6.95215 13.0011H10.9533V17.0022C10.9533 17.5545 11.401 18.0022 11.9533 18.0022C12.5055 18.0022 12.9533 17.5545 12.9533 17.0022V13.0011H16.9544C17.5066 13.0011 17.9544 12.5534 17.9544 12.0011C17.9544 11.4488 17.5066 11.0011 16.9544 11.0011H12.9533V7Z" fill="#5636D4"/>
</svg>
