<svg width="1202" height="110" viewBox="0 0 1202 110" fill="none" xmlns="http://www.w3.org/2000/svg">
<path opacity="0.5" d="M496.934 55.9H403.063C396.104 55.9 390.463 50.2588 390.463 43.3V32.7499C390.463 31.6178 389.545 30.7 388.413 30.7V30.7C387.281 30.7 386.363 31.6178 386.363 32.7499V78.6108C386.363 79.9856 385.248 81.1 383.874 81.1V81.1C382.499 81.1 381.384 79.9856 381.384 78.6108V3.48916C381.384 2.11443 380.27 1 378.895 1V1C377.521 1 376.406 2.11443 376.406 3.48916V106.218C376.406 107.754 375.161 109 373.624 109V109C372.088 109 370.842 107.754 370.842 106.218V19.082C370.842 17.5455 369.597 16.3 368.06 16.3V16.3C366.524 16.3 365.278 17.5455 365.278 19.082V66.6937C365.278 68.1883 364.067 69.4 362.572 69.4V69.4C361.317 69.4 360.3 68.3828 360.3 67.128V61.0545C360.3 58.2078 357.992 55.9 355.145 55.9H0.00761339" stroke="url(#paint0_linear_449_702)" stroke-opacity="0.5"/>
<path d="M1201 56.0083H376.369C372.439 56.0083 369.253 52.8221 369.253 48.8917V43.7869C369.253 42.6758 368.352 41.775 367.241 41.775V41.775C366.13 41.775 365.229 42.6758 365.229 43.7869V67.7986C365.229 69.1479 364.135 70.2417 362.786 70.2417V70.2417C361.436 70.2417 360.343 69.1479 360.343 67.7986V27.443C360.343 26.0938 359.249 25 357.9 25V25C356.55 25 355.456 26.0938 355.456 27.443V83.2696C355.456 84.7775 354.234 86 352.726 86V86C351.218 86 349.996 84.7775 349.996 83.2696V36.3722C349.996 34.8642 348.773 33.6417 347.265 33.6417V33.6417C345.757 33.6417 344.535 34.8642 344.535 36.3722V60.9771C344.535 62.4441 343.345 63.6333 341.878 63.6333V63.6333C340.647 63.6333 339.648 62.635 339.648 61.4034V58.9197C339.648 57.3118 338.345 56.0083 336.737 56.0083H1.13343" stroke="url(#paint1_linear_449_702)"/>
<defs>
<linearGradient id="paint0_linear_449_702" x1="603.57" y1="1.00006" x2="14.4913" y2="17.0423" gradientUnits="userSpaceOnUse">
<stop offset="0.181873" stop-color="#E28500" stop-opacity="0"/>
<stop offset="0.361241" stop-color="#E28500"/>
<stop offset="0.398023" stop-color="#D89325"/>
<stop offset="0.432459" stop-color="#FFDF8F"/>
<stop offset="0.528463" stop-color="#D89325"/>
<stop offset="1" stop-color="#D48918" stop-opacity="0"/>
</linearGradient>
<linearGradient id="paint1_linear_449_702" x1="578.413" y1="25.0034" x2="1.10996" y2="52.3227" gradientUnits="userSpaceOnUse">
<stop stop-color="#E28500" stop-opacity="0"/>
<stop offset="0.328714" stop-color="#E28500"/>
<stop offset="0.406535" stop-color="#D89325"/>
<stop offset="0.43833" stop-color="#FFDF8F"/>
<stop offset="0.528463" stop-color="#D89325"/>
<stop offset="1" stop-color="#D48918" stop-opacity="0"/>
</linearGradient>
</defs>
</svg>
