<svg width="20" height="20" viewBox="0 0 20 20" fill="none" xmlns="http://www.w3.org/2000/svg">
<path fill-rule="evenodd" clip-rule="evenodd" d="M4.59562 13.3334L5.57896 12.3484C5.89396 12.0334 6.06729 11.6151 6.06729 11.1701V7.27261C6.06729 6.14177 6.55896 5.06094 7.41729 4.30927C8.28229 3.55094 9.38396 3.2176 10.5315 3.36844C12.4706 3.62594 13.9331 5.37927 13.9331 7.44761V11.1701C13.9331 11.6151 14.1065 12.0334 14.4206 12.3476L15.4048 13.3334H4.59562ZM11.6665 15.2843C11.6665 16.0334 10.9031 16.6668 9.99979 16.6668C9.09646 16.6668 8.33312 16.0334 8.33312 15.2843V15.0001H11.6665V15.2843ZM17.1006 12.6734L15.5998 11.1701V7.44761C15.5998 4.54677 13.5148 2.08261 10.7498 1.71677C9.14812 1.50344 7.53146 1.99261 6.31896 3.05594C5.09896 4.12427 4.40062 5.66094 4.40062 7.27261L4.39979 11.1701L2.89896 12.6734C2.50812 13.0651 2.39229 13.6476 2.60396 14.1584C2.81646 14.6701 3.31062 15.0001 3.86396 15.0001H6.66646V15.2843C6.66646 16.9659 8.16146 18.3334 9.99979 18.3334C11.8381 18.3334 13.3331 16.9659 13.3331 15.2843V15.0001H16.1356C16.689 15.0001 17.1823 14.6701 17.394 14.1593C17.6065 13.6476 17.4915 13.0643 17.1006 12.6734Z" fill="white"/>
</svg>
