<svg width="1201" height="110" viewBox="0 0 1201 110" fill="none" xmlns="http://www.w3.org/2000/svg">
<path opacity="0.5" d="M704.073 55.9H797.945C804.904 55.9 810.545 50.2588 810.545 43.3V32.7499C810.545 31.6178 811.463 30.7 812.595 30.7V30.7C813.727 30.7 814.645 31.6178 814.645 32.7499V78.6108C814.645 79.9856 815.759 81.1 817.134 81.1V81.1C818.509 81.1 819.623 79.9856 819.623 78.6108V3.48916C819.623 2.11443 820.738 1 822.112 1V1C823.487 1 824.601 2.11443 824.601 3.48916V106.218C824.601 107.754 825.847 109 827.383 109V109C828.92 109 830.165 107.754 830.165 106.218V19.082C830.165 17.5455 831.411 16.3 832.947 16.3V16.3C834.484 16.3 835.729 17.5455 835.729 19.082V66.6937C835.729 68.1883 836.941 69.4 838.436 69.4V69.4C839.69 69.4 840.708 68.3828 840.708 67.128V61.0545C840.708 58.2078 843.015 55.9 845.862 55.9H1201" stroke="url(#paint0_linear_449_701)" stroke-opacity="0.5"/>
<path d="M0 56.0083H824.632C828.563 56.0083 831.749 52.8221 831.749 48.8917V43.7869C831.749 42.6758 832.65 41.775 833.761 41.775V41.775C834.872 41.775 835.773 42.6758 835.773 43.7869V67.7986C835.773 69.1479 836.867 70.2417 838.216 70.2417V70.2417C839.565 70.2417 840.659 69.1479 840.659 67.7986V27.443C840.659 26.0938 841.753 25 843.102 25V25C844.451 25 845.545 26.0938 845.545 27.443V83.2696C845.545 84.7775 846.767 86 848.275 86V86C849.783 86 851.006 84.7775 851.006 83.2696V36.3722C851.006 34.8642 852.228 33.6417 853.736 33.6417V33.6417C855.244 33.6417 856.467 34.8642 856.467 36.3722V60.9771C856.467 62.4441 857.656 63.6333 859.123 63.6333V63.6333C860.355 63.6333 861.353 62.635 861.353 61.4034V58.9197C861.353 57.3118 862.656 56.0083 864.264 56.0083H1199.87" stroke="url(#paint1_linear_449_701)"/>
<defs>
<linearGradient id="paint0_linear_449_701" x1="597.437" y1="1.00006" x2="1186.52" y2="17.0423" gradientUnits="userSpaceOnUse">
<stop offset="0.181873" stop-color="#E28500" stop-opacity="0"/>
<stop offset="0.361241" stop-color="#E28500"/>
<stop offset="0.398023" stop-color="#D89325"/>
<stop offset="0.432459" stop-color="#FFDF8F"/>
<stop offset="0.528463" stop-color="#D89325"/>
<stop offset="1" stop-color="#D48918" stop-opacity="0"/>
</linearGradient>
<linearGradient id="paint1_linear_449_701" x1="622.588" y1="25.0034" x2="1199.89" y2="52.3227" gradientUnits="userSpaceOnUse">
<stop stop-color="#E28500" stop-opacity="0"/>
<stop offset="0.328714" stop-color="#E28500"/>
<stop offset="0.406535" stop-color="#D89325"/>
<stop offset="0.43833" stop-color="#FFDF8F"/>
<stop offset="0.528463" stop-color="#D89325"/>
<stop offset="1" stop-color="#D48918" stop-opacity="0"/>
</linearGradient>
</defs>
</svg>
