<svg width="497" height="110" viewBox="0 0 497 110" fill="none" xmlns="http://www.w3.org/2000/svg">
<path opacity="0.5" d="M0.0734863 55.9H93.945C100.904 55.9 106.545 50.2588 106.545 43.3V32.7499C106.545 31.6178 107.463 30.7 108.595 30.7V30.7C109.727 30.7 110.645 31.6178 110.645 32.7499V78.6108C110.645 79.9856 111.759 81.1 113.134 81.1V81.1C114.509 81.1 115.623 79.9856 115.623 78.6108V3.48916C115.623 2.11443 116.738 1 118.112 1V1C119.487 1 120.601 2.11443 120.601 3.48916V106.218C120.601 107.754 121.847 109 123.383 109V109C124.92 109 126.165 107.754 126.165 106.218V19.082C126.165 17.5455 127.411 16.3 128.947 16.3V16.3C130.484 16.3 131.729 17.5455 131.729 19.082V66.6937C131.729 68.1883 132.941 69.4 134.436 69.4V69.4C135.69 69.4 136.708 68.3828 136.708 67.128V61.0545C136.708 58.2078 139.015 55.9 141.862 55.9H497" stroke="url(#paint0_linear_230_10940)" stroke-opacity="0.5"/>
<defs>
<linearGradient id="paint0_linear_230_10940" x1="-106.563" y1="1.00006" x2="482.516" y2="17.0423" gradientUnits="userSpaceOnUse">
<stop offset="0.181873" stop-color="#E28500" stop-opacity="0"/>
<stop offset="0.361241" stop-color="#E28500"/>
<stop offset="0.398023" stop-color="#D89325"/>
<stop offset="0.432459" stop-color="#FFDF8F"/>
<stop offset="0.528463" stop-color="#D89325"/>
<stop offset="1" stop-color="#D48918" stop-opacity="0"/>
</linearGradient>
</defs>
</svg>
