<svg width="1200" height="63" viewBox="0 0 1200 63" fill="none" xmlns="http://www.w3.org/2000/svg">
<path d="M0 32.0083H824.632C828.563 32.0083 831.749 28.8221 831.749 24.8917V19.7869C831.749 18.6758 832.65 17.775 833.761 17.775V17.775C834.872 17.775 835.773 18.6758 835.773 19.7869V43.7986C835.773 45.1479 836.867 46.2417 838.216 46.2417V46.2417C839.565 46.2417 840.659 45.1479 840.659 43.7986V3.44305C840.659 2.09379 841.753 1 843.102 1V1C844.451 1 845.545 2.09379 845.545 3.44305V59.2696C845.545 60.7775 846.767 62 848.275 62V62C849.783 62 851.006 60.7775 851.006 59.2696V12.3722C851.006 10.8642 852.228 9.64167 853.736 9.64167V9.64167C855.244 9.64167 856.467 10.8642 856.467 12.3722V36.9771C856.467 38.4441 857.656 39.6333 859.123 39.6333V39.6333C860.355 39.6333 861.353 38.635 861.353 37.4034V34.9197C861.353 33.3118 862.656 32.0083 864.264 32.0083H1199.87" stroke="url(#paint0_linear_230_10941)"/>
<defs>
<linearGradient id="paint0_linear_230_10941" x1="622.588" y1="1.0034" x2="1199.89" y2="28.3227" gradientUnits="userSpaceOnUse">
<stop stop-color="#E28500" stop-opacity="0"/>
<stop offset="0.328714" stop-color="#E28500"/>
<stop offset="0.406535" stop-color="#D89325"/>
<stop offset="0.43833" stop-color="#FFDF8F"/>
<stop offset="0.528463" stop-color="#D89325"/>
<stop offset="1" stop-color="#D48918" stop-opacity="0"/>
</linearGradient>
</defs>
</svg>
