<svg width="168" height="23" viewBox="0 0 168 23" fill="none" xmlns="http://www.w3.org/2000/svg">
<path d="M22.164 11.5318C22.1966 14.2647 21.2447 16.9175 19.4836 19.0016C17.7224 21.0858 15.2705 22.461 12.5794 22.8742C7.97995 23.6152 3.30335 21.0271 1.13855 16.5476C0.462003 15.1298 0.078377 13.5891 0.0108055 12.0184C-0.056766 10.4478 0.193114 8.8796 0.745379 7.40847C1.29764 5.93734 2.14087 4.59369 3.22423 3.4585C4.30759 2.32331 5.60867 1.42007 7.04905 0.803226C12.4087 -1.4365 18.6993 1.16823 21.1229 6.62098C21.8183 8.1635 22.1734 9.83867 22.164 11.5318ZM15.9341 11.5871C15.9947 9.86295 15.3842 8.18289 14.232 6.90301C13.8428 6.4401 13.3569 6.06903 12.8086 5.81621C12.2603 5.56339 11.6633 5.43505 11.06 5.44033C10.4567 5.44561 9.86194 5.58438 9.31814 5.84676C8.77435 6.10914 8.29486 6.48866 7.91385 6.95831C5.7105 9.375 5.74357 13.6664 7.94692 16.072C8.32658 16.5279 8.79995 16.8958 9.33457 17.1507C9.86918 17.4056 10.4524 17.5414 11.0442 17.5487C11.636 17.5561 12.2223 17.4348 12.7631 17.1933C13.3038 16.9518 13.7861 16.5957 14.1769 16.1495C15.3322 14.9165 15.9626 13.2796 15.9341 11.5871Z" fill="white"/>
<path d="M130.597 13.047C131.275 14.5512 131.936 16.0554 132.63 17.543C132.927 18.074 133.071 18.6776 133.046 19.2861C133.02 19.8946 132.827 20.484 132.487 20.9883C132.186 21.4421 131.771 21.8085 131.285 22.0507C130.798 22.2929 130.257 22.4024 129.715 22.3682C129.173 22.334 128.65 22.1574 128.198 21.8559C127.745 21.5545 127.38 21.139 127.138 20.651C126.235 18.8592 125.408 17.0177 124.67 15.154C124.323 14.2802 123.877 13.9152 122.963 14.048C122.572 14.0788 122.18 14.0788 121.789 14.048C121.789 14.3245 121.756 14.5512 121.756 14.7779C121.756 16.2047 121.756 17.6315 121.756 19.0638C121.77 19.4817 121.701 19.8983 121.554 20.2892C121.406 20.6802 121.182 21.0378 120.896 21.3414C120.609 21.6449 120.266 21.8883 119.885 22.0574C119.504 22.2266 119.093 22.3181 118.677 22.3266C118.26 22.3441 117.843 22.2756 117.453 22.1254C117.063 21.9752 116.708 21.7464 116.409 21.4532C116.11 21.16 115.874 20.8086 115.716 20.4205C115.557 20.0324 115.48 19.6159 115.488 19.1965C115.455 14.035 115.455 8.88831 115.488 3.75631C115.488 1.8484 116.859 0.59304 118.793 0.58751C121.451 0.58751 124.11 0.58751 126.769 0.58751C128.202 0.540944 129.611 0.956679 130.791 1.77369C131.972 2.59071 132.86 3.76598 133.326 5.127C133.791 6.48803 133.81 7.96313 133.38 9.33581C132.949 10.7085 132.092 11.9065 130.933 12.7539C130.845 12.8479 130.729 12.9309 130.597 13.047ZM121.784 8.89936C123.106 8.89936 124.356 8.93807 125.596 8.89936C125.785 8.88878 125.971 8.84071 126.142 8.75794C126.313 8.67516 126.466 8.5593 126.593 8.41699C126.719 8.27468 126.816 8.10872 126.879 7.92863C126.941 7.74854 126.967 7.55785 126.956 7.36751C126.965 6.97334 126.818 6.59164 126.548 6.30569C126.278 6.01974 125.905 5.85276 125.513 5.84118C124.742 5.79694 123.965 5.84118 123.188 5.84118C122.726 5.84118 122.263 5.84118 121.784 5.84118V8.89936Z" fill="white"/>
<path d="M58.6841 14.0318C58.6841 12.3451 58.6346 10.6584 58.6841 8.97167C58.8272 6.58463 59.8907 4.34737 61.6491 2.73434C63.4076 1.12132 65.7227 0.259383 68.1036 0.331314C70.4844 0.403246 72.7438 1.40339 74.4025 3.11966C76.0611 4.83592 76.9887 7.13333 76.9885 9.52469C76.9885 12.7488 76.9885 15.9673 76.9885 19.1914C77.0086 19.6152 76.9432 20.0386 76.7961 20.4363C76.6491 20.834 76.4234 21.1977 76.1328 21.5057C75.8422 21.8136 75.4925 22.0593 75.1049 22.2281C74.7172 22.3969 74.2996 22.4852 73.8771 22.4879C73.4545 22.4905 73.0358 22.4073 72.6462 22.2433C72.2565 22.0793 71.9038 21.8379 71.6094 21.5336C71.315 21.2293 71.085 20.8684 70.9331 20.4725C70.7812 20.0767 70.7105 19.6541 70.7254 19.2301C70.6979 15.912 70.7254 12.5939 70.7254 9.30349C70.7666 8.76124 70.6608 8.21791 70.4193 7.73111C70.1779 7.24432 69.8097 6.83219 69.3539 6.5384C68.9291 6.2511 68.4319 6.09076 67.9199 6.07608C67.408 6.06139 66.9024 6.19295 66.462 6.45543C65.987 6.69969 65.5916 7.07521 65.3222 7.53769C65.0528 8.00017 64.9208 8.53034 64.9417 9.06568C64.9417 12.4391 64.9417 15.8125 64.9417 19.1859C64.9523 19.61 64.8767 20.0318 64.7195 20.4256C64.5622 20.8193 64.3266 21.1767 64.027 21.4759C63.7275 21.7751 63.3702 22.0099 62.9772 22.1657C62.5842 22.3215 62.1637 22.3953 61.7413 22.3823C60.9211 22.3607 60.1419 22.0175 59.5705 21.4263C58.9991 20.8351 58.681 20.0428 58.6841 19.2191V19.0919C58.6841 17.4033 58.6841 15.7166 58.6841 14.0318Z" fill="white"/>
<path d="M142.147 0.294922C145.011 0.394465 147.105 1.00278 148.917 2.46828C149.728 3.0979 150.294 3.99161 150.52 4.99557C150.688 5.58365 150.656 6.211 150.431 6.77939C150.206 7.34779 149.799 7.82514 149.275 8.13671C148.69 8.42702 148.029 8.52967 147.384 8.43075C146.739 8.33183 146.139 8.03612 145.667 7.58369C145.375 7.29612 145.116 6.97537 144.819 6.6878C144.449 6.33623 144.006 6.07034 143.523 5.90887C143.039 5.7474 142.526 5.69427 142.02 5.7532C141.758 5.74264 141.499 5.81849 141.283 5.96922C141.067 6.11996 140.906 6.33734 140.825 6.58826C140.729 6.8603 140.739 7.15893 140.853 7.4238C140.968 7.68866 141.178 7.89999 141.442 8.01504C142.395 8.46299 143.397 8.80586 144.378 9.19297C145.48 9.6188 146.581 9.96166 147.622 10.4815C148.615 10.975 149.455 11.7297 150.054 12.665C150.653 13.6004 150.988 14.6815 151.023 15.7929C151.058 16.9043 150.792 18.0044 150.253 18.9759C149.715 19.9475 148.923 20.754 147.964 21.3096C144.736 23.3005 139.586 23.0627 136.606 20.7898C136.084 20.4399 135.642 19.9821 135.31 19.4471C134.979 18.912 134.765 18.3121 134.683 17.6873C134.582 17.0847 134.68 16.4656 134.963 15.9243C135.245 15.3831 135.697 14.9496 136.248 14.69C136.821 14.4282 137.459 14.3453 138.08 14.4517C138.7 14.5582 139.275 14.8493 139.729 15.2872C140.004 15.5637 140.247 15.8679 140.522 16.1444C140.914 16.5371 141.388 16.8359 141.911 17.0188C142.434 17.2017 142.991 17.2639 143.541 17.2007C143.82 17.1722 144.091 17.0896 144.339 16.9573C145.232 16.4983 145.364 15.6356 144.538 15.055C143.88 14.6473 143.18 14.3134 142.45 14.0595C141.15 13.5342 139.789 13.136 138.539 12.5221C136.088 11.3055 135.025 9.20403 135.184 6.51637C135.344 3.8287 136.837 1.97057 139.321 0.986194C140.242 0.675919 141.187 0.444665 142.147 0.294922Z" fill="white"/>
<path d="M51.2427 22.3488C50.2457 22.3488 49.2541 22.3875 48.2626 22.3488C47.0851 22.3031 45.9406 21.9452 44.9454 21.3116C43.9503 20.678 43.1399 19.7912 42.5966 18.7413C42.0533 17.6915 41.7965 16.5159 41.8523 15.3342C41.908 14.1524 42.2743 13.0065 42.914 12.0129C43.0264 11.8769 43.088 11.7058 43.088 11.529C43.088 11.3523 43.0264 11.1811 42.914 11.0452C42.2575 10.0282 41.8862 8.85239 41.8391 7.64145C41.792 6.4305 42.071 5.22923 42.6466 4.16402C43.2222 3.09882 44.0732 2.20908 45.1099 1.58846C46.1467 0.96784 47.331 0.639276 48.5381 0.637355C50.5045 0.587583 52.471 0.637355 54.4375 0.637355C54.7768 0.637355 55.1127 0.704436 55.4262 0.834779C55.7396 0.965123 56.0244 1.15617 56.2643 1.39701C56.5042 1.63785 56.6945 1.92378 56.8243 2.23845C56.9541 2.55313 57.021 2.89041 57.021 3.23101C57.021 3.57161 56.9541 3.90887 56.8243 4.22355C56.6945 4.53822 56.5042 4.82415 56.2643 5.06499C56.0244 5.30583 55.7396 5.4969 55.4262 5.62724C55.1127 5.75758 54.7768 5.82466 54.4375 5.82466C52.9448 5.82466 51.452 5.82466 49.9592 5.82466C48.8575 5.82466 48.2076 6.44404 48.2131 7.39523C48.2186 8.34642 48.8741 8.92155 49.9262 8.92708C51.3969 8.92708 52.8676 8.92708 54.3329 8.92708C55.9578 8.92708 57.1256 10.0331 57.1146 11.5429C57.1036 13.0526 55.9358 14.0757 54.3274 14.0867H49.9813C48.8796 14.0867 48.2131 14.6895 48.2076 15.6352C48.2021 16.5809 48.8741 17.1892 49.9647 17.2002C51.4355 17.2002 52.9062 17.2002 54.3714 17.2002C54.724 17.1784 55.0772 17.2291 55.4095 17.3491C55.7419 17.4691 56.0463 17.656 56.3041 17.8983C56.562 18.1407 56.7679 18.4333 56.9091 18.7583C57.0504 19.0832 57.124 19.4338 57.1256 19.7884C57.1256 21.2649 55.9799 22.3488 54.3714 22.3654C53.3359 22.3654 52.2948 22.3654 51.2592 22.3654L51.2427 22.3488Z" fill="white"/>
<path d="M108.028 22.3432C107.015 22.3432 105.996 22.3819 104.982 22.3432C103.82 22.2865 102.693 21.9253 101.713 21.2957C100.733 20.666 99.9341 19.7898 99.3961 18.7542C98.858 17.7185 98.5993 16.5594 98.6458 15.3923C98.6923 14.2251 99.0422 13.0905 99.6609 12.1013C99.7921 11.9417 99.8639 11.7413 99.8639 11.5344C99.8639 11.3275 99.7921 11.1271 99.6609 10.9676C99.0257 9.95739 98.6695 8.79577 98.6289 7.60181C98.5883 6.40785 98.8647 5.22453 99.4298 4.17318C99.9949 3.12183 100.828 2.24027 101.845 1.61891C102.861 0.997556 104.024 0.658743 105.213 0.637228C107.218 0.570866 109.234 0.609577 111.24 0.637228C111.588 0.621039 111.937 0.676056 112.264 0.798958C112.591 0.921859 112.89 1.1101 113.143 1.35228C113.395 1.59446 113.597 1.88555 113.734 2.20796C113.871 2.53038 113.942 2.87743 113.942 3.22811C113.942 3.5788 113.871 3.92584 113.734 4.24826C113.597 4.57068 113.395 4.86178 113.143 5.10396C112.89 5.34614 112.591 5.53437 112.264 5.65727C111.937 5.78017 111.588 5.83519 111.24 5.819C109.686 5.819 108.127 5.819 106.574 5.819C106.364 5.81175 106.154 5.84766 105.958 5.92455C105.762 6.00143 105.583 6.11767 105.433 6.26615C105.284 6.41463 105.166 6.59225 105.086 6.78811C105.007 6.98398 104.969 7.19399 104.973 7.4053C104.978 7.61661 105.025 7.82477 105.113 8.01706C105.2 8.20935 105.326 8.38174 105.482 8.52365C105.638 8.66557 105.821 8.77404 106.02 8.84244C106.219 8.91083 106.43 8.93771 106.64 8.92144C108.133 8.92144 109.62 8.92144 111.113 8.92144C111.464 8.89832 111.816 8.94781 112.148 9.06686C112.479 9.18591 112.783 9.37198 113.04 9.61355C113.296 9.85512 113.501 10.147 113.641 10.4713C113.781 10.7955 113.853 11.1451 113.853 11.4985C113.853 11.8519 113.781 12.2015 113.641 12.5257C113.501 12.8499 113.296 13.1419 113.04 13.3834C112.783 13.625 112.479 13.8111 112.148 13.9301C111.816 14.0492 111.464 14.0987 111.113 14.0755C109.642 14.0755 108.171 14.0755 106.706 14.0755C105.604 14.0755 104.949 14.6839 104.954 15.6351C104.96 16.5862 105.626 17.1725 106.728 17.1835C108.199 17.1835 109.67 17.1835 111.135 17.1835C111.487 17.1604 111.84 17.21 112.172 17.3293C112.504 17.4486 112.808 17.6351 113.066 17.8772C113.323 18.1193 113.528 18.4118 113.669 18.7367C113.809 19.0616 113.881 19.412 113.881 19.7661C113.881 20.1202 113.809 20.4706 113.669 20.7955C113.528 21.1204 113.323 21.4129 113.066 21.655C112.808 21.8971 112.504 22.0836 112.172 22.2029C111.84 22.3222 111.487 22.3718 111.135 22.3487H107.957L108.028 22.3432Z" fill="white"/>
<path d="M162.143 22.3428C161.124 22.3428 160.105 22.3815 159.091 22.3428C157.924 22.2903 156.79 21.9305 155.805 21.2994C154.819 20.6683 154.017 19.7882 153.477 18.7472C152.937 17.7063 152.68 16.5412 152.73 15.3688C152.781 14.1964 153.138 13.058 153.765 12.0677C153.898 11.9146 153.971 11.7181 153.971 11.5147C153.971 11.3113 153.898 11.1149 153.765 10.9617C153.125 9.94795 152.766 8.78113 152.725 7.58161C152.684 6.38209 152.962 5.19329 153.531 4.13781C154.1 3.08233 154.94 2.19839 155.963 1.57715C156.985 0.95591 158.155 0.619872 159.35 0.60368C161.339 0.548378 163.327 0.60368 165.316 0.60368C166.001 0.60368 166.658 0.876933 167.143 1.36334C167.627 1.84974 167.899 2.50945 167.899 3.19733C167.899 3.88521 167.627 4.54491 167.143 5.03131C166.658 5.51772 166.001 5.79099 165.316 5.79099C163.845 5.79099 162.38 5.79099 160.909 5.79099C159.752 5.79099 159.091 6.37718 159.097 7.35602C159.102 8.33486 159.763 8.89341 160.931 8.89894C162.38 8.89894 163.823 8.89894 165.272 8.89894C165.618 8.88281 165.965 8.93744 166.29 9.05953C166.615 9.18162 166.912 9.36864 167.163 9.60927C167.414 9.84991 167.614 10.1392 167.751 10.4595C167.887 10.7799 167.958 11.1248 167.958 11.4732C167.958 11.8217 167.887 12.1666 167.751 12.4869C167.614 12.8073 167.414 13.0966 167.163 13.3372C166.912 13.5778 166.615 13.7649 166.29 13.887C165.965 14.009 165.618 14.0637 165.272 14.0475C163.801 14.0475 162.33 14.0475 160.865 14.0475C159.763 14.0475 159.097 14.6393 159.091 15.5905C159.086 16.5417 159.747 17.15 160.838 17.161C162.308 17.161 163.779 17.161 165.244 17.161C165.596 17.1392 165.949 17.1897 166.281 17.3094C166.613 17.4291 166.917 17.6155 167.175 17.8572C167.433 18.099 167.639 18.3909 167.78 18.7152C167.922 19.0396 167.996 19.3895 167.998 19.7436C167.998 21.2202 166.858 22.3041 165.244 22.3262H162.132L162.143 22.3428Z" fill="white"/>
<path d="M29.9205 14.0754C29.9205 15.7345 29.9205 17.3161 29.9205 18.8867C29.9257 19.339 29.8664 19.7896 29.7442 20.225C29.5178 20.9217 29.0526 21.5152 28.4313 21.9C27.81 22.2848 27.0729 22.4359 26.3511 22.3265C25.6629 22.2281 25.0268 21.9032 24.5423 21.4028C24.0578 20.9024 23.7524 20.2548 23.674 19.5614C23.6465 19.2793 23.6465 19.0084 23.6465 18.7208V4.23172C23.6465 1.82609 24.8748 0.592872 27.271 0.592872C29.4303 0.592872 31.5951 0.559691 33.7543 0.592872C35.1986 0.628176 36.5928 1.13093 37.7294 2.02625C38.8659 2.92157 39.684 4.16156 40.0617 5.56149C40.4394 6.96142 40.3565 8.4464 39.8255 9.79523C39.2944 11.1441 38.3435 12.2845 37.1145 13.0468C35.9798 13.735 34.6718 14.0806 33.3467 14.0422C32.2451 14.0644 31.1103 14.0754 29.9205 14.0754ZM29.9646 8.87706C30.901 8.87706 31.7989 8.93237 32.6912 8.87706C33.0412 8.81283 33.3577 8.62739 33.5855 8.35304C33.8134 8.07869 33.9381 7.73282 33.9381 7.37562C33.9381 7.01843 33.8134 6.67255 33.5855 6.39821C33.3577 6.12386 33.0412 5.93842 32.6912 5.87418C31.7989 5.79123 30.901 5.87418 29.9811 5.87418L29.9646 8.87706Z" fill="white"/>
<path d="M88.1223 11.4207L90.3642 6.27766C90.915 5.03337 91.4273 3.77248 92.0167 2.53925C92.3153 1.83837 92.8568 1.26988 93.5409 0.939064C94.225 0.60825 95.0053 0.537525 95.7373 0.739986C96.4694 0.942446 97.1035 1.40439 97.5224 2.04024C97.9412 2.67609 98.1163 3.44277 98.0153 4.1983C97.833 4.95287 97.565 5.68395 97.2166 6.37719C95.2061 10.9672 93.1735 15.5462 91.1574 20.1363C90.6066 21.4525 89.6701 22.3483 88.1719 22.3483C87.5096 22.3733 86.8568 22.1849 86.3087 21.8108C85.7607 21.4367 85.3462 20.8965 85.1257 20.269C84.7126 19.2957 84.2664 18.3334 83.8423 17.3657C82.0539 13.3286 80.2783 9.29343 78.5157 5.26009C78.3016 4.88119 78.1678 4.462 78.1226 4.02876C78.0774 3.59552 78.1219 3.15759 78.2531 2.7424C78.3844 2.3272 78.5997 1.94371 78.8854 1.61594C79.1712 1.28817 79.5213 1.02317 79.9139 0.837584C80.3064 0.651994 80.7329 0.549809 81.1666 0.537414C81.6003 0.525018 82.0319 0.602684 82.4343 0.765554C82.8367 0.928424 83.2013 1.17297 83.5052 1.4839C83.8091 1.79482 84.0457 2.16541 84.2003 2.57243C85.3681 5.17714 86.5028 7.79292 87.6486 10.4032C87.7753 10.6907 87.913 10.9838 88.1223 11.4207Z" fill="white"/>
</svg>
