<svg width="168" height="24" viewBox="0 0 168 24" fill="none" xmlns="http://www.w3.org/2000/svg">
<path d="M22.164 12.0318C22.1966 14.7647 21.2447 17.4175 19.4836 19.5016C17.7224 21.5858 15.2705 22.961 12.5794 23.3742C7.97995 24.1152 3.30335 21.5271 1.13855 17.0476C0.462003 15.6298 0.078377 14.0891 0.0108055 12.5184C-0.056766 10.9478 0.193114 9.3796 0.745379 7.90847C1.29764 6.43734 2.14087 5.09369 3.22423 3.9585C4.30759 2.82331 5.60867 1.92007 7.04905 1.30323C12.4087 -0.936495 18.6993 1.66823 21.1229 7.12098C21.8183 8.6635 22.1734 10.3387 22.164 12.0318ZM15.9341 12.0871C15.9947 10.363 15.3842 8.68289 14.232 7.40301C13.8428 6.9401 13.3569 6.56903 12.8086 6.31621C12.2603 6.06339 11.6633 5.93505 11.06 5.94033C10.4567 5.94561 9.86194 6.08438 9.31814 6.34676C8.77435 6.60914 8.29486 6.98866 7.91385 7.45831C5.7105 9.875 5.74357 14.1664 7.94692 16.572C8.32658 17.0279 8.79995 17.3958 9.33457 17.6507C9.86918 17.9056 10.4524 18.0414 11.0442 18.0487C11.636 18.0561 12.2223 17.9348 12.7631 17.6933C13.3038 17.4518 13.7861 17.0957 14.1769 16.6495C15.3322 15.4165 15.9626 13.7796 15.9341 12.0871Z" fill="url(#paint0_linear_322_751)"/>
<path d="M130.596 13.547C131.274 15.0512 131.935 16.5554 132.629 18.043C132.926 18.574 133.07 19.1776 133.045 19.7861C133.02 20.3946 132.826 20.984 132.486 21.4883C132.185 21.9421 131.771 22.3085 131.284 22.5507C130.798 22.7929 130.256 22.9024 129.715 22.8682C129.173 22.834 128.649 22.6574 128.197 22.3559C127.745 22.0545 127.379 21.639 127.137 21.151C126.234 19.3592 125.408 17.5177 124.669 15.654C124.322 14.7802 123.876 14.4152 122.962 14.548C122.571 14.5788 122.179 14.5788 121.789 14.548C121.789 14.8245 121.755 15.0512 121.755 15.2779C121.755 16.7047 121.755 18.1315 121.755 19.5638C121.769 19.9817 121.701 20.3983 121.553 20.7892C121.405 21.1802 121.182 21.5378 120.895 21.8414C120.609 22.1449 120.265 22.3883 119.884 22.5574C119.503 22.7266 119.093 22.8181 118.676 22.8266C118.259 22.8441 117.842 22.7756 117.452 22.6254C117.062 22.4752 116.707 22.2464 116.408 21.9532C116.109 21.66 115.874 21.3086 115.715 20.9205C115.557 20.5324 115.479 20.1159 115.487 19.6965C115.454 14.535 115.454 9.38831 115.487 4.25631C115.487 2.3484 116.859 1.09304 118.792 1.08751C121.451 1.08751 124.109 1.08751 126.768 1.08751C128.201 1.04094 129.611 1.45668 130.791 2.27369C131.971 3.09071 132.859 4.26598 133.325 5.627C133.791 6.98803 133.81 8.46313 133.379 9.83581C132.949 11.2085 132.091 12.4065 130.932 13.2539C130.844 13.3479 130.729 13.4309 130.596 13.547ZM121.783 9.39936C123.105 9.39936 124.355 9.43807 125.595 9.39936C125.784 9.38878 125.97 9.34071 126.141 9.25794C126.312 9.17516 126.465 9.0593 126.592 8.91699C126.718 8.77468 126.815 8.60872 126.878 8.42863C126.94 8.24854 126.967 8.05785 126.955 7.86751C126.964 7.47334 126.818 7.09164 126.547 6.80569C126.277 6.51974 125.905 6.35276 125.512 6.34118C124.741 6.29694 123.964 6.34118 123.188 6.34118C122.725 6.34118 122.262 6.34118 121.783 6.34118V9.39936Z" fill="url(#paint1_linear_322_751)"/>
<path d="M58.6846 14.5313C58.6846 12.8446 58.6351 11.1579 58.6846 9.47118C58.8276 7.08414 59.8911 4.84688 61.6496 3.23386C63.4081 1.62083 65.7232 0.758895 68.1041 0.830826C70.4849 0.902757 72.7443 1.9029 74.4029 3.61917C76.0616 5.33544 76.9892 7.63284 76.989 10.0242C76.989 13.2483 76.989 16.4668 76.989 19.6909C77.0091 20.1147 76.9437 20.5381 76.7966 20.9358C76.6496 21.3335 76.4239 21.6972 76.1333 22.0052C75.8427 22.3131 75.493 22.5588 75.1054 22.7276C74.7177 22.8964 74.3001 22.9848 73.8776 22.9874C73.455 22.99 73.0363 22.9068 72.6466 22.7428C72.257 22.5788 71.9043 22.3374 71.6099 22.0331C71.3155 21.7288 71.0855 21.3679 70.9336 20.972C70.7816 20.5762 70.711 20.1536 70.7259 19.7297C70.6984 16.4115 70.7259 13.0935 70.7259 9.803C70.7671 9.26075 70.6613 8.71742 70.4198 8.23062C70.1784 7.74383 69.8102 7.3317 69.3544 7.03791C68.9296 6.75061 68.4323 6.59027 67.9204 6.57559C67.4084 6.5609 66.9029 6.69246 66.4625 6.95494C65.9875 7.19921 65.592 7.57472 65.3227 8.0372C65.0533 8.49968 64.9213 9.02985 64.9421 9.56519C64.9421 12.9386 64.9421 16.312 64.9421 19.6854C64.9528 20.1095 64.8772 20.5313 64.72 20.9251C64.5627 21.3189 64.3271 21.6763 64.0275 21.9755C63.7279 22.2747 63.3707 22.5094 62.9777 22.6652C62.5847 22.8211 62.1641 22.8948 61.7418 22.8819C60.9215 22.8602 60.1424 22.517 59.571 21.9258C58.9996 21.3346 58.6815 20.5424 58.6846 19.7186V19.5914C58.6846 17.9029 58.6846 16.2162 58.6846 14.5313Z" fill="url(#paint2_linear_322_751)"/>
<path d="M142.148 0.794434C145.012 0.893977 147.105 1.50229 148.917 2.96779C149.728 3.59741 150.295 4.49112 150.52 5.49508C150.688 6.08316 150.657 6.71051 150.432 7.27891C150.206 7.8473 149.8 8.32465 149.275 8.63622C148.69 8.92654 148.03 9.02918 147.385 8.93026C146.739 8.83134 146.14 8.53564 145.667 8.0832C145.375 7.79563 145.117 7.47488 144.819 7.18731C144.449 6.83574 144.007 6.56986 143.523 6.40839C143.04 6.24692 142.527 6.19378 142.021 6.25271C141.758 6.24215 141.499 6.318 141.284 6.46874C141.068 6.61947 140.907 6.83685 140.826 7.08778C140.729 7.35981 140.739 7.65844 140.854 7.92331C140.968 8.18818 141.179 8.3995 141.442 8.51455C142.395 8.9625 143.398 9.30537 144.378 9.69248C145.48 10.1183 146.582 10.4612 147.623 10.981C148.615 11.4745 149.456 12.2292 150.055 13.1646C150.654 14.0999 150.989 15.181 151.024 16.2924C151.059 17.4038 150.793 18.5039 150.254 19.4755C149.715 20.447 148.924 21.2536 147.964 21.8091C144.736 23.8 139.586 23.5622 136.606 21.2893C136.084 20.9394 135.643 20.4816 135.311 19.9466C134.979 19.4116 134.766 18.8116 134.684 18.1868C134.583 17.5843 134.681 16.9651 134.963 16.4238C135.246 15.8826 135.697 15.4491 136.248 15.1895C136.821 14.9278 137.459 14.8448 138.08 14.9512C138.701 15.0577 139.275 15.3488 139.729 15.7867C140.005 16.0632 140.247 16.3674 140.523 16.6439C140.914 17.0366 141.389 17.3355 141.912 17.5183C142.434 17.7012 142.991 17.7634 143.541 17.7002C143.821 17.6717 144.092 17.5891 144.34 17.4569C145.232 16.9979 145.364 16.1351 144.538 15.5545C143.881 15.1468 143.181 14.8129 142.45 14.559C141.151 14.0337 139.79 13.6355 138.54 13.0216C136.088 11.805 135.025 9.70355 135.185 7.01588C135.345 4.32822 136.837 2.47008 139.322 1.48571C140.242 1.17543 141.188 0.944177 142.148 0.794434Z" fill="url(#paint3_linear_322_751)"/>
<path d="M51.2427 22.8488C50.2457 22.8488 49.2541 22.8875 48.2626 22.8488C47.0851 22.8031 45.9406 22.4452 44.9454 21.8116C43.9503 21.178 43.1399 20.2912 42.5966 19.2413C42.0533 18.1915 41.7965 17.0159 41.8523 15.8342C41.908 14.6524 42.2743 13.5065 42.914 12.5129C43.0264 12.3769 43.088 12.2058 43.088 12.029C43.088 11.8523 43.0264 11.6811 42.914 11.5452C42.2575 10.5282 41.8862 9.35239 41.8391 8.14145C41.792 6.9305 42.071 5.72923 42.6466 4.66402C43.2222 3.59882 44.0732 2.70908 45.1099 2.08846C46.1467 1.46784 47.331 1.13928 48.5381 1.13736C50.5045 1.08758 52.471 1.13736 54.4375 1.13736C54.7768 1.13736 55.1127 1.20444 55.4262 1.33478C55.7396 1.46512 56.0244 1.65617 56.2643 1.89701C56.5042 2.13785 56.6945 2.42378 56.8243 2.73845C56.9541 3.05313 57.021 3.39041 57.021 3.73101C57.021 4.07161 56.9541 4.40887 56.8243 4.72355C56.6945 5.03822 56.5042 5.32415 56.2643 5.56499C56.0244 5.80583 55.7396 5.9969 55.4262 6.12724C55.1127 6.25758 54.7768 6.32466 54.4375 6.32466C52.9448 6.32466 51.452 6.32466 49.9592 6.32466C48.8575 6.32466 48.2076 6.94404 48.2131 7.89523C48.2186 8.84642 48.8741 9.42155 49.9262 9.42708C51.3969 9.42708 52.8676 9.42708 54.3329 9.42708C55.9578 9.42708 57.1256 10.5331 57.1146 12.0429C57.1036 13.5526 55.9358 14.5757 54.3274 14.5867H49.9813C48.8796 14.5867 48.2131 15.1895 48.2076 16.1352C48.2021 17.0809 48.8741 17.6892 49.9647 17.7002C51.4355 17.7002 52.9062 17.7002 54.3714 17.7002C54.724 17.6784 55.0772 17.7291 55.4095 17.8491C55.7419 17.9691 56.0463 18.156 56.3041 18.3983C56.562 18.6407 56.7679 18.9333 56.9091 19.2583C57.0504 19.5832 57.124 19.9338 57.1256 20.2884C57.1256 21.7649 55.9799 22.8488 54.3714 22.8654C53.3359 22.8654 52.2948 22.8654 51.2592 22.8654L51.2427 22.8488Z" fill="url(#paint4_linear_322_751)"/>
<path d="M108.029 22.8432C107.015 22.8432 105.996 22.8819 104.982 22.8432C103.82 22.7865 102.693 22.4253 101.713 21.7957C100.733 21.166 99.9346 20.2898 99.3966 19.2542C98.8585 18.2185 98.5998 17.0594 98.6463 15.8923C98.6927 14.7251 99.0427 13.5905 99.6614 12.6013C99.7926 12.4417 99.8643 12.2413 99.8643 12.0344C99.8643 11.8275 99.7926 11.6271 99.6614 11.4676C99.0262 10.4574 98.67 9.29577 98.6294 8.10181C98.5888 6.90785 98.8652 5.72453 99.4303 4.67318C99.9954 3.62183 100.829 2.74027 101.845 2.11891C102.861 1.49756 104.024 1.15874 105.214 1.13723C107.219 1.07087 109.235 1.10958 111.24 1.13723C111.589 1.12104 111.938 1.17606 112.265 1.29896C112.592 1.42186 112.891 1.6101 113.143 1.85228C113.396 2.09446 113.597 2.38555 113.734 2.70796C113.872 3.03038 113.943 3.37743 113.943 3.72811C113.943 4.0788 113.872 4.42584 113.734 4.74826C113.597 5.07068 113.396 5.36178 113.143 5.60396C112.891 5.84614 112.592 6.03437 112.265 6.15727C111.938 6.28017 111.589 6.33519 111.24 6.319C109.687 6.319 108.128 6.319 106.574 6.319C106.364 6.31175 106.154 6.34766 105.958 6.42455C105.762 6.50143 105.584 6.61767 105.434 6.76615C105.284 6.91463 105.166 7.09225 105.087 7.28811C105.008 7.48398 104.969 7.69399 104.974 7.9053C104.978 8.11661 105.026 8.32477 105.113 8.51706C105.2 8.70935 105.326 8.88174 105.482 9.02365C105.638 9.16557 105.821 9.27404 106.02 9.34244C106.22 9.41083 106.431 9.43771 106.641 9.42144C108.133 9.42144 109.621 9.42144 111.113 9.42144C111.465 9.39832 111.817 9.44781 112.148 9.56686C112.48 9.68591 112.783 9.87198 113.04 10.1136C113.297 10.3551 113.502 10.647 113.642 10.9713C113.782 11.2955 113.854 11.6451 113.854 11.9985C113.854 12.3519 113.782 12.7015 113.642 13.0257C113.502 13.3499 113.297 13.6419 113.04 13.8834C112.783 14.125 112.48 14.3111 112.148 14.4301C111.817 14.5492 111.465 14.5987 111.113 14.5755C109.643 14.5755 108.172 14.5755 106.707 14.5755C105.605 14.5755 104.949 15.1839 104.955 16.1351C104.96 17.0862 105.627 17.6725 106.729 17.6835C108.199 17.6835 109.67 17.6835 111.135 17.6835C111.487 17.6604 111.84 17.71 112.172 17.8293C112.504 17.9486 112.809 18.1351 113.066 18.3772C113.324 18.6193 113.529 18.9118 113.669 19.2367C113.809 19.5616 113.882 19.912 113.882 20.2661C113.882 20.6202 113.809 20.9706 113.669 21.2955C113.529 21.6204 113.324 21.9129 113.066 22.155C112.809 22.3971 112.504 22.5836 112.172 22.7029C111.84 22.8222 111.487 22.8718 111.135 22.8487H107.957L108.029 22.8432Z" fill="url(#paint5_linear_322_751)"/>
<path d="M162.143 22.8433C161.124 22.8433 160.105 22.882 159.091 22.8433C157.924 22.7908 156.79 22.431 155.805 21.7999C154.819 21.1688 154.017 20.2887 153.477 19.2477C152.937 18.2068 152.68 17.0417 152.73 15.8693C152.781 14.6969 153.138 13.5585 153.765 12.5682C153.898 12.4151 153.971 12.2186 153.971 12.0152C153.971 11.8118 153.898 11.6154 153.765 11.4622C153.125 10.4484 152.766 9.28162 152.725 8.0821C152.684 6.88258 152.962 5.69377 153.531 4.6383C154.1 3.58282 154.94 2.69888 155.963 2.07764C156.985 1.4564 158.155 1.12036 159.35 1.10417C161.339 1.04887 163.327 1.10417 165.316 1.10417C166.001 1.10417 166.658 1.37742 167.143 1.86383C167.627 2.35023 167.899 3.00994 167.899 3.69782C167.899 4.3857 167.627 5.0454 167.143 5.5318C166.658 6.01821 166.001 6.29148 165.316 6.29148C163.845 6.29148 162.38 6.29148 160.909 6.29148C159.752 6.29148 159.091 6.87767 159.097 7.85651C159.102 8.83535 159.763 9.3939 160.931 9.39943C162.38 9.39943 163.823 9.39943 165.272 9.39943C165.618 9.38329 165.965 9.43792 166.29 9.56001C166.615 9.68211 166.912 9.86912 167.163 10.1098C167.414 10.3504 167.614 10.6396 167.751 10.96C167.887 11.2804 167.958 11.6253 167.958 11.9737C167.958 12.3222 167.887 12.6671 167.751 12.9874C167.614 13.3078 167.414 13.5971 167.163 13.8377C166.912 14.0783 166.615 14.2654 166.29 14.3874C165.965 14.5095 165.618 14.5642 165.272 14.548C163.801 14.548 162.33 14.548 160.865 14.548C159.763 14.548 159.097 15.1398 159.091 16.0909C159.086 17.0421 159.747 17.6505 160.838 17.6615C162.308 17.6615 163.779 17.6615 165.244 17.6615C165.596 17.6397 165.949 17.6902 166.281 17.8099C166.613 17.9296 166.917 18.116 167.175 18.3577C167.433 18.5995 167.639 18.8914 167.78 19.2157C167.922 19.5401 167.996 19.89 167.998 20.2441C167.998 21.7207 166.858 22.8046 165.244 22.8267H162.132L162.143 22.8433Z" fill="url(#paint6_linear_322_751)"/>
<path d="M29.9198 14.5754C29.9198 16.2345 29.9198 17.8161 29.9198 19.3867C29.925 19.839 29.8657 20.2896 29.7435 20.725C29.5171 21.4217 29.0518 22.0152 28.4305 22.4C27.8092 22.7848 27.0722 22.9359 26.3504 22.8265C25.6622 22.7281 25.026 22.4032 24.5416 21.9028C24.0571 21.4024 23.7517 20.7548 23.6733 20.0614C23.6457 19.7793 23.6458 19.5084 23.6458 19.2208V4.73172C23.6458 2.32609 24.8741 1.09287 27.2703 1.09287C29.4295 1.09287 31.5943 1.05969 33.7536 1.09287C35.1978 1.12818 36.5921 1.63093 37.7286 2.52625C38.8652 3.42157 39.6833 4.66156 40.061 6.06149C40.4387 7.46142 40.3558 8.9464 39.8247 10.2952C39.2937 11.6441 38.3428 12.7845 37.1137 13.5468C35.9791 14.235 34.6711 14.5806 33.346 14.5422C32.2443 14.5644 31.1096 14.5754 29.9198 14.5754ZM29.9638 9.37706C30.9003 9.37706 31.7981 9.43237 32.6905 9.37706C33.0405 9.31283 33.357 9.12739 33.5848 8.85304C33.8126 8.57869 33.9374 8.23282 33.9374 7.87562C33.9374 7.51843 33.8126 7.17255 33.5848 6.89821C33.357 6.62386 33.0405 6.43842 32.6905 6.37418C31.7981 6.29123 30.9003 6.37418 29.9804 6.37418L29.9638 9.37706Z" fill="url(#paint7_linear_322_751)"/>
<path d="M88.1213 11.9212L90.3632 6.77814C90.9141 5.53385 91.4263 4.27297 92.0157 3.03974C92.3144 2.33886 92.8559 1.77037 93.5399 1.43955C94.224 1.10874 95.0043 1.03801 95.7364 1.24047C96.4684 1.44293 97.1025 1.90488 97.5214 2.54073C97.9402 3.17658 98.1154 3.94326 98.0144 4.69879C97.832 5.45336 97.564 6.18444 97.2156 6.87768C95.2051 11.4677 93.1725 16.0467 91.1564 20.6368C90.6056 21.9529 89.6692 22.8488 88.1709 22.8488C87.5086 22.8737 86.8558 22.6854 86.3077 22.3113C85.7597 21.9372 85.3452 21.3969 85.1247 20.7695C84.7116 19.7962 84.2654 18.8339 83.8413 17.8661C82.0529 13.8291 80.2774 9.79392 78.5147 5.76058C78.3006 5.38168 78.1668 4.96248 78.1216 4.52925C78.0764 4.09601 78.1209 3.65808 78.2521 3.24288C78.3834 2.82769 78.5987 2.4442 78.8844 2.11643C79.1702 1.78865 79.5203 1.52366 79.9129 1.33807C80.3054 1.15248 80.7319 1.0503 81.1656 1.0379C81.5993 1.02551 82.0309 1.10317 82.4333 1.26604C82.8358 1.42891 83.2003 1.67346 83.5042 1.98438C83.8081 2.29531 84.0448 2.6659 84.1993 3.07292C85.3671 5.67763 86.5018 8.29341 87.6476 10.9037C87.7743 11.1912 87.912 11.4843 88.1213 11.9212Z" fill="url(#paint8_linear_322_751)"/>
<defs>
<linearGradient id="paint0_linear_322_751" x1="-3.68679" y1="11.9986" x2="212.379" y2="11.9986" gradientUnits="userSpaceOnUse">
<stop offset="0.01" stop-color="#00DFE9"/>
<stop offset="0.54" stop-color="#8D00E9"/>
<stop offset="1" stop-color="#E900CA"/>
</linearGradient>
<linearGradient id="paint1_linear_322_751" x1="-3.68683" y1="11.993" x2="212.379" y2="11.993" gradientUnits="userSpaceOnUse">
<stop offset="0.01" stop-color="#00DFE9"/>
<stop offset="0.54" stop-color="#8D00E9"/>
<stop offset="1" stop-color="#E900CA"/>
</linearGradient>
<linearGradient id="paint2_linear_322_751" x1="-3.68674" y1="11.8436" x2="212.379" y2="11.8436" gradientUnits="userSpaceOnUse">
<stop offset="0.01" stop-color="#00DFE9"/>
<stop offset="0.54" stop-color="#8D00E9"/>
<stop offset="1" stop-color="#E900CA"/>
</linearGradient>
<linearGradient id="paint3_linear_322_751" x1="-3.68703" y1="11.9875" x2="212.379" y2="11.9875" gradientUnits="userSpaceOnUse">
<stop offset="0.01" stop-color="#00DFE9"/>
<stop offset="0.54" stop-color="#8D00E9"/>
<stop offset="1" stop-color="#E900CA"/>
</linearGradient>
<linearGradient id="paint4_linear_322_751" x1="-3.6869" y1="11.982" x2="212.379" y2="11.982" gradientUnits="userSpaceOnUse">
<stop offset="0.01" stop-color="#00DFE9"/>
<stop offset="0.54" stop-color="#8D00E9"/>
<stop offset="1" stop-color="#E900CA"/>
</linearGradient>
<linearGradient id="paint5_linear_322_751" x1="-3.68667" y1="11.9764" x2="212.379" y2="11.9764" gradientUnits="userSpaceOnUse">
<stop offset="0.01" stop-color="#00DFE9"/>
<stop offset="0.54" stop-color="#8D00E9"/>
<stop offset="1" stop-color="#E900CA"/>
</linearGradient>
<linearGradient id="paint6_linear_322_751" x1="-3.68637" y1="11.9765" x2="212.379" y2="11.9765" gradientUnits="userSpaceOnUse">
<stop offset="0.01" stop-color="#00DFE9"/>
<stop offset="0.54" stop-color="#8D00E9"/>
<stop offset="1" stop-color="#E900CA"/>
</linearGradient>
<linearGradient id="paint7_linear_322_751" x1="-3.6868" y1="11.9763" x2="212.379" y2="11.9763" gradientUnits="userSpaceOnUse">
<stop offset="0.01" stop-color="#00DFE9"/>
<stop offset="0.54" stop-color="#8D00E9"/>
<stop offset="1" stop-color="#E900CA"/>
</linearGradient>
<linearGradient id="paint8_linear_322_751" x1="-3.68686" y1="11.9986" x2="212.379" y2="11.9986" gradientUnits="userSpaceOnUse">
<stop offset="0.01" stop-color="#00DFE9"/>
<stop offset="0.54" stop-color="#8D00E9"/>
<stop offset="1" stop-color="#E900CA"/>
</linearGradient>
</defs>
</svg>
